HIERARCHY
ROOT hip
{
  OFFSET 0 0 0
  CHANNELS 6 Xposition Yposition Zposition Zrotation Yrotation Xrotation
  JOINT abdomen
  {
    OFFSET 0 20.6881 -0.73152
    CHANNELS 3 Zrotation Xrotation Yrotation
    JOINT chest
    {
      OFFSET 0 11.7043 -0.48768
      CHANNELS 3 Zrotation Xrotation Yrotation
      JOINT neck
      {
        OFFSET 0 22.1894 -2.19456
        CHANNELS 3 Zrotation Xrotation Yrotation
        JOINT head
        {
          OFFSET -0.24384 7.07133 1.2192
          CHANNELS 3 Zrotation Xrotation Yrotation
          JOINT leftEye
          {
            OFFSET 4.14528 8.04674 8.04672
            CHANNELS 3 Zrotation Xrotation Yrotation
            End Site
            {
              OFFSET 1 0 0
            }
          }
          JOINT rightEye
          {
            OFFSET -3.6576 8.04674 8.04672
            CHANNELS 3 Zrotation Xrotation Yrotation
            End Site
            {
              OFFSET 1 0 0
            }
          }
        }
      }
      JOINT rCollar
      {
        OFFSET -2.68224 19.2634 -4.8768
        CHANNELS 3 Zrotation Xrotation Yrotation
        JOINT rShldr
        {
          OFFSET -8.77824 -1.95073 1.46304
          CHANNELS 3 Zrotation Xrotation Yrotation
          JOINT rForeArm
          {
            OFFSET -28.1742 -1.7115 0.48768
            CHANNELS 3 Zrotation Xrotation Yrotation
            JOINT rHand
            {
              OFFSET -22.5879 0.773209 7.07136
              CHANNELS 3 Zrotation Xrotation Yrotation
              JOINT rThumb1
              {
                OFFSET -1.2192 -0.487915 3.41376
                CHANNELS 3 Zrotation Xrotation Yrotation
                JOINT rThumb2
                {
                  OFFSET -3.37035 -0.52449 3.41376
                  CHANNELS 3 Zrotation Xrotation Yrotation
                  End Site
                  {
                    OFFSET -1.78271 -1.18214 1.43049
                  }
                }
              }
              JOINT rIndex1
              {
                OFFSET -7.75947 0.938293 5.60832
                CHANNELS 3 Zrotation Xrotation Yrotation
                JOINT rIndex2
                {
                  OFFSET -2.54057 -0.884171 1.56538
                  CHANNELS 3 Zrotation Xrotation Yrotation
                  End Site
                  {
                    OFFSET -1.62519 -0.234802 1.16502
                  }
                }
              }
              JOINT rMid1
              {
                OFFSET -8.24714 1.18213 3.41376
                CHANNELS 3 Zrotation Xrotation Yrotation
                JOINT rMid2
                {
                  OFFSET -3.10165 -0.590103 1.0647
                  CHANNELS 3 Zrotation Xrotation Yrotation
                  End Site
                  {
                    OFFSET -2.48547 -0.328903 0.83742
                  }
                }
              }
              JOINT rRing1
              {
                OFFSET -8.82822 0.546677 1.51678
                CHANNELS 3 Zrotation Xrotation Yrotation
                JOINT rRing2
                {
                  OFFSET -2.60934 -0.819778 -0.0198488
                  CHANNELS 3 Zrotation Xrotation Yrotation
                  End Site
                  {
                    OFFSET -2.33842 -0.294052 0.168128
                  }
                }
              }
              JOINT rPinky1
              {
                OFFSET -8.27202 -0.0477905 -0.4584
                CHANNELS 3 Zrotation Xrotation Yrotation
                JOINT rPinky2
                {
                  OFFSET -1.82734 -0.647385 -0.700984
                  CHANNELS 3 Zrotation Xrotation Yrotation
                  End Site
                  {
                    OFFSET -1.69225 -0.51767 -0.607171
                  }
                }
              }
            }
          }
        }
      }
      JOINT lCollar
      {
        OFFSET 2.68224 19.2634 -4.8768
        CHANNELS 3 Zrotation Xrotation Yrotation
        JOINT lShldr
        {
          OFFSET 8.77824 -1.95073 1.46304
          CHANNELS 3 Zrotation Xrotation Yrotation
          JOINT lForeArm
          {
            OFFSET 28.1742 -1.7115 0.48768
            CHANNELS 3 Zrotation Xrotation Yrotation
            JOINT lHand
            {
              OFFSET 22.5879 0.773209 7.07136
              CHANNELS 3 Zrotation Xrotation Yrotation
              JOINT lThumb1
              {
                OFFSET 1.2192 -0.487915 3.41376
                CHANNELS 3 Zrotation Xrotation Yrotation
                JOINT lThumb2
                {
                  OFFSET 3.37035 -0.52449 3.41376
                  CHANNELS 3 Zrotation Xrotation Yrotation
                  End Site
                  {
                    OFFSET 1.78271 -1.18214 1.43049
                  }
                }
              }
              JOINT lIndex1
              {
                OFFSET 7.75947 0.938293 5.60832
                CHANNELS 3 Zrotation Xrotation Yrotation
                JOINT lIndex2
                {
                  OFFSET 2.54057 -0.884171 1.56538
                  CHANNELS 3 Zrotation Xrotation Yrotation
                  End Site
                  {
                    OFFSET 1.62519 -0.234802 1.16502
                  }
                }
              }
              JOINT lMid1
              {
                OFFSET 8.24714 1.18213 3.41376
                CHANNELS 3 Zrotation Xrotation Yrotation
                JOINT lMid2
                {
                  OFFSET 3.10165 -0.590103 1.0647
                  CHANNELS 3 Zrotation Xrotation Yrotation
                  End Site
                  {
                    OFFSET 2.48547 -0.328903 0.83742
                  }
                }
              }
              JOINT lRing1
              {
                OFFSET 8.82822 0.546677 1.51678
                CHANNELS 3 Zrotation Xrotation Yrotation
                JOINT lRing2
                {
                  OFFSET 2.60934 -0.819778 -0.0198488
                  CHANNELS 3 Zrotation Xrotation Yrotation
                  End Site
                  {
                    OFFSET 2.33842 -0.294052 0.168128
                  }
                }
              }
              JOINT lPinky1
              {
                OFFSET 8.27202 -0.0477905 -0.4584
                CHANNELS 3 Zrotation Xrotation Yrotation
                JOINT lPinky2
                {
                  OFFSET 1.82734 -0.647385 -0.700984
                  CHANNELS 3 Zrotation Xrotation Yrotation
                  End Site
                  {
                    OFFSET 1.69225 -0.51767 -0.607171
                  }
                }
              }
            }
          }
        }
      }
    }
  }
  JOINT rButtock
  {
    OFFSET -8.77824 4.35084 1.2192
    CHANNELS 3 Zrotation Xrotation Yrotation
    JOINT rThigh
    {
      OFFSET 0 -1.70687 -2.19456
      CHANNELS 3 Zrotation Xrotation Yrotation
      JOINT rShin
      {
        OFFSET 0 -36.8199 0.73152
        CHANNELS 3 Zrotation Xrotation Yrotation
        JOINT rFoot
        {
          OFFSET 0.73152 -45.1104 -5.12064
          CHANNELS 3 Zrotation Xrotation Yrotation
          End Site
          {
            OFFSET -1.1221 -3.69964 12.103
          }
        }
      }
    }
  }
  JOINT lButtock
  {
    OFFSET 8.77824 4.35084 1.2192
    CHANNELS 3 Zrotation Xrotation Yrotation
    JOINT lThigh
    {
      OFFSET 0 -1.70687 -2.19456
      CHANNELS 3 Zrotation Xrotation Yrotation
      JOINT lShin
      {
        OFFSET 0 -36.8199 0.73152
        CHANNELS 3 Zrotation Xrotation Yrotation
        JOINT lFoot
        {
          OFFSET -0.73152 -45.1104 -5.12064
          CHANNELS 3 Zrotation Xrotation Yrotation
          End Site
          {
            OFFSET 1.1221 -3.69964 12.103
          }
        }
      }
    }
  }
}
MOTION
Frames:	6
Frame Time:	0.00833333
58.377 85.5886 44.134 0.0 0.0 0.0 2.72259 0.00051837 0.0736201 0.750833 0.0131642 0.129928 -3.58573e-14 0.0 -3.97569e-16 -1.0744e-13 3.18055e-15 -1.19581e-15 -0.0 0.0 0.0 -0.0 0.0 0.0 -1.77437e-14 -4.23194e-17 -9.93923e-17 -3.76628e-13 -6.64686e-16 -4.37326e-15 -6.53887e-12 1.91927e-12 -9.54166e-15 -7.45973e-11 -2.09723e-12 -8.84194e-13 -1.76018e-10 -3.89825e-13 -1.93378e-12 -3.03988e-10 -6.74278e-13 -3.34356e-12 -1.76015e-10 -3.87233e-13 -1.94968e-12 7.73091 5.47488 0.417314 -1.76019e-10 -3.89817e-13 -1.9306e-12 2.90554 0.965183 0.102902 -1.76014e-10 -3.89519e-13 -1.93457e-12 10.2786 0.731801 0.0259123 -1.76026e-10 -3.88028e-13 -1.92424e-12 2.22167 -0.733487 -0.20892 -1.78399e-14 -4.46489e-17 -3.97569e-16 -3.79771e-13 -4.53478e-16 -5.96354e-15 -6.49444e-12 -1.98864e-12 -1.27222e-14 -7.46342e-11 1.80345e-12 -8.77833e-13 -1.76002e-10 -4.07769e-13 -1.92424e-12 -3.03943e-10 -7.06083e-13 -3.31732e-12 -1.76009e-10 -4.04328e-13 -1.90515e-12 -7.73091 5.47488 -0.417314 -1.76003e-10 -4.07807e-13 -1.92424e-12 -2.90554 0.965183 -0.102902 -1.7601e-10 -4.07906e-13 -1.92662e-12 -10.2786 0.731801 -0.0259123 -1.75997e-10 -4.06316e-13 -1.93696e-12 -2.22167 -0.733487 0.20892 -2.03217e-16 0.0 -3.88251e-19 2.53303 -8.65198 -0.274476 0.00739478 10.0933 0.189514 -0.516944 -1.45222 0.0286215 2.03217e-16 0.0 3.88251e-19 1.60794 -1.93183 -0.00953385 0.00859904 -2.07865 0.0706313 0.458789 3.99948 -0.132465
57.1705 84.4559 37.8644 -176.41 -78.2782 -170.503 0.311678 -2.4221 2.26289 2.40058 0.31273 0.754476 0.140614 1.4203 0.0358071 1.80234 -0.728627 -0.0915073 -0.0 0.0 0.0 -0.0 0.0 0.0 -8.31001e-14 2.29148e-12 -1.38761e-15 24.099 5.82001 -1.16221 -24.2615 -22.1107 14.6254 5.18612e-05 0.16375 0.0230133 -6.98897e-10 -7.9469e-10 1.20943e-09 -1.20679e-09 -1.37238e-09 2.09029e-09 -6.98897e-10 -7.94688e-10 1.20942e-09 7.73091 5.47488 0.417314 -6.98899e-10 -7.94689e-10 1.20943e-09 2.90554 0.965183 0.102902 -6.98893e-10 -7.94689e-10 1.20943e-09 10.2786 0.731801 0.0259123 -6.98904e-10 -7.94688e-10 1.20944e-09 2.22167 -0.733487 -0.20892 -8.32097e-14 2.29148e-12 -1.64036e-15 -20.6247 7.34739 -0.25507 23.0706 -20.9455 -14.8782 0.00028499 -0.174877 0.0245891 2.74043e-10 -1.8978e-10 -1.11694e-09 4.73291e-10 -3.27288e-10 -1.92863e-09 2.74032e-10 -1.89778e-10 -1.11692e-09 -7.73091 5.47488 -0.417314 2.74043e-10 -1.8978e-10 -1.11694e-09 -2.90554 0.965183 -0.102902 2.74031e-10 -1.89781e-10 -1.11693e-09 -10.2786 0.731801 -0.0259123 2.7405e-10 -1.89778e-10 -1.11695e-09 -2.22167 -0.733487 0.20892 -2.03217e-16 0.0 -3.88251e-19 -1.07058 -13.3007 1.11275 -0.00655955 15.3346 0.25638 -0.521901 -6.04399 -0.497348 2.03217e-16 0.0 3.88251e-19 3.4616 -3.52155 -3.30045 0.000809579 -0.90563 0.00811102 0.84067 -0.288241 4.43615
57.3347 84.4343 38.0473 -177.02 -77.8977 -169.925 -2.04264 -4.99471 4.67739 4.14674 0.613354 1.44038 0.34346 2.95569 0.067446 3.67805 -1.62438 -0.197433 -0.0 0.0 0.0 -0.0 0.0 0.0 -1.55408e-13 4.80956e-12 -1.09953e-15 49.8298 11.8771 -2.41279 -35.0123 -40.2469 37.68 -3.73626e-05 0.332705 0.0467587 -1.28313e-09 -1.67239e-09 2.55472e-09 -2.21553e-09 -2.88809e-09 4.41538e-09 -1.28313e-09 -1.67239e-09 2.55471e-09 7.73091 5.47488 0.417314 -1.28313e-09 -1.67239e-09 2.55472e-09 2.90554 0.965183 0.102902 -1.28313e-09 -1.67239e-09 2.55472e-09 10.2786 0.731801 0.0259123 -1.28314e-09 -1.67239e-09 2.55473e-09 2.22167 -0.733487 -0.20892 -1.55533e-13 4.80956e-12 -1.30142e-15 -42.3144 15.174 -0.567747 33.5497 -38.0286 -37.3205 0.000974009 -0.312087 0.0438938 7.69722e-10 -4.02017e-10 -2.36261e-09 1.32939e-09 -6.93307e-10 -4.07957e-09 7.69706e-10 -4.02016e-10 -2.36259e-09 -7.73091 5.47488 -0.417314 7.69722e-10 -4.02017e-10 -2.36261e-09 -2.90554 0.965183 -0.102902 7.69705e-10 -4.02018e-10 -2.3626e-09 -10.2786 0.731801 -0.0259123 7.69731e-10 -4.02013e-10 -2.36262e-09 -2.22167 -0.733487 0.20892 -2.03217e-16 0.0 -3.88251e-19 -4.57377 -18.2853 2.63987 -0.0366082 20.9278 0.333539 -0.583252 -10.9758 -0.906967 2.03217e-16 0.0 3.88251e-19 5.24394 -5.19381 -6.80165 -0.00468071 0.333498 -0.0581223 1.99639 -4.77724 9.34588
57.3057 84.4822 38.1926 -178.54 -77.9314 -169.072 -3.95231 -7.22401 6.6887 5.68048 0.911386 2.00379 0.416504 4.2609 0.107686 5.40002 -2.18586 -0.274699 -0.0 0.0 0.0 -0.0 0.0 0.0 -2.13813e-13 6.87452e-12 -3.96405e-15 73.0338 17.4306 -3.63582 -31.0282 -44.8911 66.6819 -0.000239057 0.49125 0.0690421 -1.74465e-09 -2.38329e-09 3.63216e-09 -3.0124e-09 -4.11578e-09 6.27756e-09 -1.74466e-09 -2.38329e-09 3.63215e-09 7.73091 5.47488 0.417314 -1.74466e-09 -2.38329e-09 3.63216e-09 2.90554 0.965183 0.102902 -1.74465e-09 -2.38329e-09 3.63216e-09 10.2786 0.731801 0.0259123 -1.74466e-09 -2.38329e-09 3.63217e-09 2.22167 -0.733487 -0.20892 -2.13949e-13 6.87452e-12 -4.12595e-15 -61.6646 22.0403 -0.818766 30.78 -42.5691 -64.4132 0.00130529 -0.524629 0.0737701 1.17413e-09 -5.68525e-10 -3.34696e-09 2.02776e-09 -9.80453e-10 -5.77924e-09 1.17411e-09 -5.68525e-10 -3.34695e-09 -7.73091 5.47488 -0.417314 1.17413e-09 -5.68525e-10 -3.34697e-09 -2.90554 0.965183 -0.102902 1.17411e-09 -5.68527e-10 -3.34695e-09 -10.2786 0.731801 -0.0259123 1.17414e-09 -5.68521e-10 -3.34697e-09 -2.22167 -0.733487 0.20892 -2.03217e-16 0.0 -3.88251e-19 -7.55142 -22.5529 4.10588 -0.0758123 25.817 0.409464 -0.792691 -15.2226 -1.59702 2.03217e-16 0.0 3.88251e-19 6.62108 -6.61876 -9.93042 -0.00709219 1.44041 -0.116876 3.65237 -8.61678 13.7305
57.0738 84.6212 38.3294 -181.366 -78.3709 -167.591 -5.18756 -8.64428 7.64106 6.69692 1.20342 2.26078 0.167677 4.99068 0.169242 6.74476 -1.91171 -0.280033 -0.0 0.0 0.0 -0.0 0.0 0.0 -2.37462e-13 7.80667e-12 -1.47101e-14 89.4324 21.7493 -4.66568 -28.0696 -40.0308 83.977 -0.00047722 0.62377 0.0876686 -1.89941e-09 -2.67718e-09 4.03999e-09 -3.27959e-09 -4.62341e-09 6.98247e-09 -1.89941e-09 -2.67718e-09 4.03998e-09 7.73091 5.47488 0.417314 -1.89941e-09 -2.67717e-09 4.03999e-09 2.90554 0.965183 0.102902 -1.89941e-09 -2.67717e-09 4.03998e-09 10.2786 0.731801 0.0259123 -1.89941e-09 -2.67717e-09 4.03999e-09 2.22167 -0.733487 -0.20892 -2.37599e-13 7.80666e-12 -1.48592e-14 -75.3598 26.5085 -0.849177 28.3099 -38.2438 -80.8287 0.00105065 -0.925504 0.130082 1.35037e-09 -6.20711e-10 -3.67803e-09 2.33183e-09 -1.07042e-09 -6.35075e-09 1.35035e-09 -6.20712e-10 -3.67801e-09 -7.73091 5.47488 -0.417314 1.35037e-09 -6.20711e-10 -3.67803e-09 -2.90554 0.965183 -0.102902 1.35035e-09 -6.20714e-10 -3.67801e-09 -10.2786 0.731801 -0.0259123 1.35039e-09 -6.20707e-10 -3.67804e-09 -2.22167 -0.733487 0.20892 -2.03217e-16 0.0 -3.88251e-19 -9.76137 -25.0686 5.22283 -0.106215 28.946 0.465787 -1.2965 -17.752 -2.97014 2.03217e-16 0.0 3.88251e-19 7.38213 -7.50127 -12.085 -0.00724939 2.21681 -0.156892 5.06763 -11.1034 16.6077
56.8196 84.8216 38.4415 -184.548 -79.2002 -165.942 -5.62966 -8.87796 6.93815 6.95469 1.48405 2.04855 -0.600414 4.86554 0.290524 7.61685 -0.408625 -0.113753 -0.0 0.0 0.0 -0.0 0.0 0.0 -2.10308e-13 7.0754e-12 -4.24922e-14 96.0682 24.5088 -5.27224 -28.0832 -36.6035 88.3005 -0.00120474 0.81385 0.114384 -1.62122e-09 -2.39911e-09 3.60019e-09 -2.79982e-09 -4.14338e-09 6.22247e-09 -1.62122e-09 -2.39911e-09 3.60018e-09 7.73091 5.47488 0.417314 -1.62122e-09 -2.39911e-09 3.60019e-09 2.90554 0.965183 0.102902 -1.62122e-09 -2.39911e-09 3.60018e-09 10.2786 0.731801 0.0259123 -1.62122e-09 -2.39911e-09 3.60019e-09 2.22167 -0.733487 -0.20892 -2.10427e-13 7.0754e-12 -4.2677e-14 -81.1993 27.5207 -0.525801 28.2744 -35.0675 -85.0827 0.00254265 -1.54234 0.216861 1.19875e-09 -5.41808e-10 -3.17939e-09 2.07068e-09 -9.34451e-10 -5.48944e-09 1.19873e-09 -5.41812e-10 -3.17938e-09 -7.73091 5.47488 -0.417314 1.19875e-09 -5.4181e-10 -3.1794e-09 -2.90554 0.965183 -0.102902 1.19873e-09 -5.41812e-10 -3.17938e-09 -10.2786 0.731801 -0.0259123 1.19876e-09 -5.41806e-10 -3.17941e-09 -2.22167 -0.733487 0.20892 -2.03217e-16 0.0 -3.88251e-19 -11.1952 -25.1231 5.73293 -0.107979 29.6686 0.486899 -2.19919 -17.7315 -5.54938 2.03217e-16 0.0 3.88251e-19 7.43649 -7.61875 -12.8514 -0.00662233 2.51129 -0.169578 5.47971 -11.8775 17.2015
